<svg xmlns="http://www.w3.org/2000/svg" xmlns:xlink="http://www.w3.org/1999/xlink" width="250" zoomAndPan="magnify" viewBox="0 0 187.5 187.499992" height="250" preserveAspectRatio="xMidYMid meet" version="1.2"><defs><clipPath id="2a1bd3ae9f"><path d="M 26 93.636719 L 94.25 93.636719 L 94.25 131 L 26 131 Z M 26 93.636719 "/></clipPath><clipPath id="499b222317"><path d="M 74 93.636719 L 94.25 93.636719 L 94.25 115 L 74 115 Z M 74 93.636719 "/></clipPath><clipPath id="460766976d"><path d="M 26 59 L 94.996094 59 L 94.996094 94.996094 L 26 94.996094 Z M 26 59 "/></clipPath><clipPath id="10ea654342"><path d="M 74 75 L 94.996094 75 L 94.996094 94.996094 L 74 94.996094 Z M 74 75 "/></clipPath><clipPath id="df3dc03a7f"><path d="M 92.824219 59 L 161 59 L 161 94.996094 L 92.824219 94.996094 Z M 92.824219 59 "/></clipPath><clipPath id="95d655442a"><path d="M 92.824219 75 L 114 75 L 114 94.996094 L 92.824219 94.996094 Z M 92.824219 75 "/></clipPath><clipPath id="2461865fb8"><path d="M 151 31 L 187 31 L 187 88 L 151 88 Z M 151 31 "/></clipPath><clipPath id="a02fc98dc8"><path d="M 93.367188 94.445312 L 161 94.445312 L 161 131 L 93.367188 131 Z M 93.367188 94.445312 "/></clipPath><clipPath id="ef319df12a"><path d="M 93.367188 94.445312 L 113 94.445312 L 113 115 L 93.367188 115 Z M 93.367188 94.445312 "/></clipPath><clipPath id="c459b8528f"><path d="M 151 99 L 186.730469 99 L 186.730469 156 L 151 156 Z M 151 99 "/></clipPath></defs><g id="c20769b740"><g clip-rule="nonzero" clip-path="url(#2a1bd3ae9f)"><path style=" stroke:none;fill-rule:nonzero;fill:#f9cb17;fill-opacity:1;" d="M 160.644531 95.09375 C 123.675781 47.347656 63.746094 47.347656 26.777344 95.09375 C 45.242188 118.988281 69.488281 130.894531 93.691406 130.894531 C 117.894531 130.894531 142.140625 118.988281 160.644531 95.09375 Z M 122.464844 94.117188 L 133.355469 94.117188 C 133.707031 93.21875 134.566406 92.632812 135.582031 92.632812 C 136.949219 92.632812 138.039062 93.726562 138.039062 95.09375 C 138.039062 96.421875 136.949219 97.515625 135.582031 97.515625 C 134.566406 97.515625 133.707031 96.929688 133.355469 96.070312 L 122.464844 96.070312 C 122.386719 97.90625 122.152344 99.660156 121.761719 101.378906 L 135.269531 101.378906 L 139.289062 104.464844 C 140.855469 103.417969 143 104.59375 143 106.53125 C 143 107.859375 141.90625 108.953125 140.539062 108.953125 C 139.011719 108.953125 137.84375 107.511719 138.195312 106.105469 L 134.605469 103.332031 L 121.292969 103.332031 C 117.738281 115.238281 106.730469 123.90625 93.691406 123.90625 C 80.652344 123.90625 69.644531 115.238281 66.089844 103.332031 L 52.386719 103.332031 L 48.796875 106.105469 C 49.148438 107.507812 47.980469 108.953125 46.453125 108.953125 C 45.085938 108.953125 43.992188 107.859375 43.992188 106.53125 C 43.992188 104.734375 45.929688 103.375 47.742188 104.464844 L 51.722656 101.378906 L 65.582031 101.378906 C 65.230469 99.660156 64.996094 97.90625 64.917969 96.070312 L 53.675781 96.070312 C 53.285156 96.929688 52.425781 97.515625 51.410156 97.515625 C 50.046875 97.515625 48.953125 96.421875 48.953125 95.09375 C 48.953125 93.726562 50.046875 92.632812 51.410156 92.632812 C 52.425781 92.632812 53.285156 93.21875 53.675781 94.117188 L 64.917969 94.117188 C 64.996094 92.285156 65.191406 90.488281 65.582031 88.730469 L 51.722656 88.730469 L 47.585938 85.570312 C 45.933594 86.488281 43.992188 85.25 43.992188 83.421875 C 43.992188 82.09375 45.085938 81 46.453125 81 C 47.847656 81 49.152344 82.230469 48.796875 84.007812 L 52.386719 86.777344 L 66.089844 86.777344 C 69.644531 74.910156 80.652344 66.28125 93.691406 66.28125 C 106.730469 66.28125 117.738281 74.910156 121.292969 86.777344 L 134.605469 86.777344 L 138.234375 84.007812 C 137.738281 82.769531 138.824219 81 140.539062 81 C 141.90625 81 143 82.09375 143 83.421875 C 143 85.253906 141.054688 86.484375 139.40625 85.570312 L 135.269531 88.730469 L 121.800781 88.730469 C 122.191406 90.488281 122.386719 92.285156 122.464844 94.117188 Z M 122.464844 94.117188 "/></g><g clip-rule="nonzero" clip-path="url(#499b222317)"><path style=" stroke:none;fill-rule:nonzero;fill:#f9cb17;fill-opacity:1;" d="M 93.691406 75.574219 C 82.917969 75.574219 74.171875 84.28125 74.171875 95.054688 C 74.171875 105.871094 82.917969 114.574219 93.691406 114.574219 C 104.464844 114.574219 113.210938 105.871094 113.210938 95.054688 C 113.210938 84.28125 104.464844 75.574219 93.691406 75.574219 Z M 93.691406 106.140625 C 87.601562 106.140625 82.644531 101.183594 82.644531 95.09375 C 82.644531 89.003906 87.601562 84.046875 93.691406 84.046875 C 99.820312 84.046875 104.738281 89.003906 104.738281 95.09375 C 104.738281 101.183594 99.820312 106.140625 93.691406 106.140625 Z M 93.691406 106.140625 "/></g><path style=" stroke:none;fill-rule:nonzero;fill:#f9cb17;fill-opacity:1;" d="M 19.441406 99.160156 L 0.195312 99.160156 C 1.523438 120.632812 10.074219 140.113281 23.464844 155.261719 L 36.542969 142.183594 C 26.742188 130.355469 20.496094 115.480469 19.441406 99.160156 Z M 19.441406 99.160156 "/><path style=" stroke:none;fill-rule:nonzero;fill:#f9cb17;fill-opacity:1;" d="M 31.699219 163.578125 C 46.847656 176.96875 66.367188 185.519531 87.839844 186.804688 L 87.839844 169.199219 C 71.324219 167.753906 56.375 160.960938 44.660156 150.617188 Z M 31.699219 163.578125 "/><g clip-rule="nonzero" clip-path="url(#460766976d)"><path style=" stroke:none;fill-rule:nonzero;fill:#59a9d6;fill-opacity:1;" d="M 160.644531 95.09375 C 123.675781 47.347656 63.746094 47.347656 26.777344 95.09375 C 45.242188 118.988281 69.488281 130.894531 93.691406 130.894531 C 117.894531 130.894531 142.140625 118.988281 160.644531 95.09375 Z M 122.464844 94.117188 L 133.355469 94.117188 C 133.707031 93.21875 134.566406 92.632812 135.582031 92.632812 C 136.949219 92.632812 138.039062 93.726562 138.039062 95.09375 C 138.039062 96.421875 136.949219 97.515625 135.582031 97.515625 C 134.566406 97.515625 133.707031 96.929688 133.355469 96.070312 L 122.464844 96.070312 C 122.386719 97.90625 122.152344 99.660156 121.761719 101.378906 L 135.269531 101.378906 L 139.289062 104.464844 C 140.855469 103.417969 143 104.59375 143 106.53125 C 143 107.859375 141.90625 108.953125 140.539062 108.953125 C 139.011719 108.953125 137.84375 107.511719 138.195312 106.105469 L 134.605469 103.332031 L 121.292969 103.332031 C 117.738281 115.238281 106.730469 123.90625 93.691406 123.90625 C 80.652344 123.90625 69.644531 115.238281 66.089844 103.332031 L 52.386719 103.332031 L 48.796875 106.105469 C 49.148438 107.507812 47.980469 108.953125 46.453125 108.953125 C 45.085938 108.953125 43.992188 107.859375 43.992188 106.53125 C 43.992188 104.734375 45.929688 103.375 47.742188 104.464844 L 51.722656 101.378906 L 65.582031 101.378906 C 65.230469 99.660156 64.996094 97.90625 64.917969 96.070312 L 53.675781 96.070312 C 53.285156 96.929688 52.425781 97.515625 51.410156 97.515625 C 50.046875 97.515625 48.953125 96.421875 48.953125 95.09375 C 48.953125 93.726562 50.046875 92.632812 51.410156 92.632812 C 52.425781 92.632812 53.285156 93.21875 53.675781 94.117188 L 64.917969 94.117188 C 64.996094 92.285156 65.191406 90.488281 65.582031 88.730469 L 51.722656 88.730469 L 47.585938 85.570312 C 45.933594 86.488281 43.992188 85.25 43.992188 83.421875 C 43.992188 82.09375 45.085938 81 46.453125 81 C 47.847656 81 49.152344 82.230469 48.796875 84.007812 L 52.386719 86.777344 L 66.089844 86.777344 C 69.644531 74.910156 80.652344 66.28125 93.691406 66.28125 C 106.730469 66.28125 117.738281 74.910156 121.292969 86.777344 L 134.605469 86.777344 L 138.234375 84.007812 C 137.738281 82.769531 138.824219 81 140.539062 81 C 141.90625 81 143 82.09375 143 83.421875 C 143 85.253906 141.054688 86.484375 139.40625 85.570312 L 135.269531 88.730469 L 121.800781 88.730469 C 122.191406 90.488281 122.386719 92.285156 122.464844 94.117188 Z M 122.464844 94.117188 "/></g><g clip-rule="nonzero" clip-path="url(#10ea654342)"><path style=" stroke:none;fill-rule:nonzero;fill:#59a9d6;fill-opacity:1;" d="M 93.691406 75.574219 C 82.917969 75.574219 74.171875 84.28125 74.171875 95.054688 C 74.171875 105.871094 82.917969 114.574219 93.691406 114.574219 C 104.464844 114.574219 113.210938 105.871094 113.210938 95.054688 C 113.210938 84.28125 104.464844 75.574219 93.691406 75.574219 Z M 93.691406 106.140625 C 87.601562 106.140625 82.644531 101.183594 82.644531 95.09375 C 82.644531 89.003906 87.601562 84.046875 93.691406 84.046875 C 99.820312 84.046875 104.738281 89.003906 104.738281 95.09375 C 104.738281 101.183594 99.820312 106.140625 93.691406 106.140625 Z M 93.691406 106.140625 "/></g><path style=" stroke:none;fill-rule:nonzero;fill:#59a9d6;fill-opacity:1;" d="M 87.839844 19.167969 L 87.839844 -0.195312 C 66.367188 1.132812 46.886719 9.683594 31.738281 23.074219 L 45.636719 36.96875 C 57.195312 27.015625 71.753906 20.574219 87.839844 19.167969 Z M 87.839844 19.167969 "/><path style=" stroke:none;fill-rule:nonzero;fill:#59a9d6;fill-opacity:1;" d="M 37.359375 45.246094 L 23.464844 31.347656 C 10.074219 46.496094 1.523438 66.015625 0.195312 87.449219 L 19.558594 87.449219 C 20.964844 71.402344 27.40625 56.800781 37.359375 45.246094 Z M 37.359375 45.246094 "/><g clip-rule="nonzero" clip-path="url(#df3dc03a7f)"><path style=" stroke:none;fill-rule:nonzero;fill:#4fc56e;fill-opacity:1;" d="M 160.644531 95.09375 C 123.675781 47.347656 63.746094 47.347656 26.777344 95.09375 C 45.242188 118.988281 69.488281 130.894531 93.691406 130.894531 C 117.894531 130.894531 142.140625 118.988281 160.644531 95.09375 Z M 122.464844 94.117188 L 133.355469 94.117188 C 133.707031 93.21875 134.566406 92.632812 135.582031 92.632812 C 136.949219 92.632812 138.039062 93.726562 138.039062 95.09375 C 138.039062 96.421875 136.949219 97.515625 135.582031 97.515625 C 134.566406 97.515625 133.707031 96.929688 133.355469 96.070312 L 122.464844 96.070312 C 122.386719 97.90625 122.152344 99.660156 121.761719 101.378906 L 135.269531 101.378906 L 139.289062 104.464844 C 140.855469 103.417969 143 104.59375 143 106.53125 C 143 107.859375 141.90625 108.953125 140.539062 108.953125 C 139.011719 108.953125 137.84375 107.511719 138.195312 106.105469 L 134.605469 103.332031 L 121.292969 103.332031 C 117.738281 115.238281 106.730469 123.90625 93.691406 123.90625 C 80.652344 123.90625 69.644531 115.238281 66.089844 103.332031 L 52.386719 103.332031 L 48.796875 106.105469 C 49.148438 107.507812 47.980469 108.953125 46.453125 108.953125 C 45.085938 108.953125 43.992188 107.859375 43.992188 106.53125 C 43.992188 104.734375 45.929688 103.375 47.742188 104.464844 L 51.722656 101.378906 L 65.582031 101.378906 C 65.230469 99.660156 64.996094 97.90625 64.917969 96.070312 L 53.675781 96.070312 C 53.285156 96.929688 52.425781 97.515625 51.410156 97.515625 C 50.046875 97.515625 48.953125 96.421875 48.953125 95.09375 C 48.953125 93.726562 50.046875 92.632812 51.410156 92.632812 C 52.425781 92.632812 53.285156 93.21875 53.675781 94.117188 L 64.917969 94.117188 C 64.996094 92.285156 65.191406 90.488281 65.582031 88.730469 L 51.722656 88.730469 L 47.585938 85.570312 C 45.933594 86.488281 43.992188 85.25 43.992188 83.421875 C 43.992188 82.09375 45.085938 81 46.453125 81 C 47.847656 81 49.152344 82.230469 48.796875 84.007812 L 52.386719 86.777344 L 66.089844 86.777344 C 69.644531 74.910156 80.652344 66.28125 93.691406 66.28125 C 106.730469 66.28125 117.738281 74.910156 121.292969 86.777344 L 134.605469 86.777344 L 138.234375 84.007812 C 137.738281 82.769531 138.824219 81 140.539062 81 C 141.90625 81 143 82.09375 143 83.421875 C 143 85.253906 141.054688 86.484375 139.40625 85.570312 L 135.269531 88.730469 L 121.800781 88.730469 C 122.191406 90.488281 122.386719 92.285156 122.464844 94.117188 Z M 122.464844 94.117188 "/></g><g clip-rule="nonzero" clip-path="url(#95d655442a)"><path style=" stroke:none;fill-rule:nonzero;fill:#4fc56e;fill-opacity:1;" d="M 93.691406 75.574219 C 82.917969 75.574219 74.171875 84.28125 74.171875 95.054688 C 74.171875 105.871094 82.917969 114.574219 93.691406 114.574219 C 104.464844 114.574219 113.210938 105.871094 113.210938 95.054688 C 113.210938 84.28125 104.464844 75.574219 93.691406 75.574219 Z M 93.691406 106.140625 C 87.601562 106.140625 82.644531 101.183594 82.644531 95.09375 C 82.644531 89.003906 87.601562 84.046875 93.691406 84.046875 C 99.820312 84.046875 104.738281 89.003906 104.738281 95.09375 C 104.738281 101.183594 99.820312 106.140625 93.691406 106.140625 Z M 93.691406 106.140625 "/></g><path style=" stroke:none;fill-rule:nonzero;fill:#4fc56e;fill-opacity:1;" d="M 155.652344 23.074219 C 140.503906 9.683594 121.023438 1.132812 99.550781 -0.195312 L 99.550781 19.050781 C 115.871094 20.105469 130.707031 26.351562 142.574219 36.152344 Z M 155.652344 23.074219 "/><g clip-rule="nonzero" clip-path="url(#2461865fb8)"><path style=" stroke:none;fill-rule:nonzero;fill:#4fc56e;fill-opacity:1;" d="M 169.589844 87.449219 L 187.195312 87.449219 C 185.871094 66.015625 177.320312 46.496094 163.929688 31.347656 L 151.007812 44.269531 C 161.351562 55.984375 168.144531 70.976562 169.589844 87.449219 Z M 169.589844 87.449219 "/></g><g clip-rule="nonzero" clip-path="url(#a02fc98dc8)"><path style=" stroke:none;fill-rule:nonzero;fill:#5a6cf8;fill-opacity:1;" d="M 160.375 95.09375 C 123.40625 47.347656 63.476562 47.347656 26.507812 95.09375 C 44.972656 118.988281 69.21875 130.894531 93.421875 130.894531 C 117.625 130.894531 141.871094 118.988281 160.375 95.09375 Z M 122.195312 94.117188 L 133.085938 94.117188 C 133.4375 93.21875 134.296875 92.632812 135.3125 92.632812 C 136.679688 92.632812 137.769531 93.726562 137.769531 95.09375 C 137.769531 96.421875 136.679688 97.515625 135.3125 97.515625 C 134.296875 97.515625 133.4375 96.929688 133.085938 96.070312 L 122.195312 96.070312 C 122.117188 97.90625 121.882812 99.660156 121.492188 101.378906 L 135 101.378906 L 139.019531 104.464844 C 140.585938 103.417969 142.730469 104.59375 142.730469 106.53125 C 142.730469 107.859375 141.636719 108.953125 140.269531 108.953125 C 138.742188 108.953125 137.574219 107.511719 137.925781 106.105469 L 134.335938 103.332031 L 121.023438 103.332031 C 117.46875 115.238281 106.460938 123.90625 93.421875 123.90625 C 80.382812 123.90625 69.375 115.238281 65.820312 103.332031 L 52.117188 103.332031 L 48.527344 106.105469 C 48.878906 107.507812 47.710938 108.953125 46.183594 108.953125 C 44.816406 108.953125 43.722656 107.859375 43.722656 106.53125 C 43.722656 104.734375 45.660156 103.375 47.472656 104.464844 L 51.453125 101.378906 L 65.3125 101.378906 C 64.960938 99.660156 64.726562 97.90625 64.648438 96.070312 L 53.40625 96.070312 C 53.015625 96.929688 52.15625 97.515625 51.140625 97.515625 C 49.777344 97.515625 48.683594 96.421875 48.683594 95.09375 C 48.683594 93.726562 49.777344 92.632812 51.140625 92.632812 C 52.15625 92.632812 53.015625 93.21875 53.40625 94.117188 L 64.648438 94.117188 C 64.726562 92.285156 64.921875 90.488281 65.3125 88.730469 L 51.453125 88.730469 L 47.316406 85.570312 C 45.664062 86.488281 43.722656 85.25 43.722656 83.421875 C 43.722656 82.09375 44.816406 81 46.183594 81 C 47.578125 81 48.882812 82.230469 48.527344 84.007812 L 52.117188 86.777344 L 65.820312 86.777344 C 69.375 74.910156 80.382812 66.28125 93.421875 66.28125 C 106.460938 66.28125 117.46875 74.910156 121.023438 86.777344 L 134.335938 86.777344 L 137.964844 84.007812 C 137.46875 82.769531 138.554688 81 140.269531 81 C 141.636719 81 142.730469 82.09375 142.730469 83.421875 C 142.730469 85.253906 140.785156 86.484375 139.136719 85.570312 L 135 88.730469 L 121.53125 88.730469 C 121.921875 90.488281 122.117188 92.285156 122.195312 94.117188 Z M 122.195312 94.117188 "/></g><g clip-rule="nonzero" clip-path="url(#ef319df12a)"><path style=" stroke:none;fill-rule:nonzero;fill:#5a6cf8;fill-opacity:1;" d="M 93.421875 75.574219 C 82.648438 75.574219 73.902344 84.28125 73.902344 95.054688 C 73.902344 105.871094 82.648438 114.574219 93.421875 114.574219 C 104.195312 114.574219 112.941406 105.871094 112.941406 95.054688 C 112.941406 84.28125 104.195312 75.574219 93.421875 75.574219 Z M 93.421875 106.140625 C 87.332031 106.140625 82.375 101.183594 82.375 95.09375 C 82.375 89.003906 87.332031 84.046875 93.421875 84.046875 C 99.550781 84.046875 104.46875 89.003906 104.46875 95.09375 C 104.46875 101.183594 99.550781 106.140625 93.421875 106.140625 Z M 93.421875 106.140625 "/></g><g clip-rule="nonzero" clip-path="url(#c459b8528f)"><path style=" stroke:none;fill-rule:nonzero;fill:#5a6cf8;fill-opacity:1;" d="M 151.515625 143.121094 L 163.660156 155.261719 C 177.050781 140.113281 185.597656 120.632812 186.925781 99.160156 L 169.4375 99.160156 C 168.382812 115.949219 161.824219 131.175781 151.515625 143.121094 Z M 151.515625 143.121094 "/></g><path style=" stroke:none;fill-rule:nonzero;fill:#5a6cf8;fill-opacity:1;" d="M 99.28125 169.316406 L 99.28125 186.804688 C 120.753906 185.519531 140.273438 176.96875 155.421875 163.578125 L 143.242188 151.398438 C 131.253906 161.703125 116.03125 168.261719 99.28125 169.316406 Z M 99.28125 169.316406 "/></g></svg>